<?xml version="1.0" encoding="utf-8"?>
<!-- Generator: Adobe Illustrator 21.0.0, SVG Export Plug-In . SVG Version: 6.00 Build 0)  -->
<svg version="1.1" id="Camada_1" xmlns="http://www.w3.org/2000/svg" xmlns:xlink="http://www.w3.org/1999/xlink" x="0px" y="0px"
	 viewBox="0 0 200 200" style="enable-background:new 0 0 200 200;" xml:space="preserve">
<style type="text/css">
	.st0{fill:#FFFFFF;stroke:#000000;stroke-miterlimit:10;}
</style>
<g transform="translate(0.000000,200.000000) scale(0.100000,-0.100000)">
	<path class="st0" d="M1418.7,1738.7c8.9-25.7-13.8-62.7-75.2-125.4l-62.3-62.7l46.5-59.6c42.5-55.5,104.9-161.4,94-161.4
		c-2,0-24.7,30.8-49.5,69.9c-24.7,38-58.4,84.3-74.2,103.8l-28.7,36l-70.2-54.5c-38.6-29.8-70.2-56.5-70.2-59.6
		c0-3.1,12.9-22.6,28.7-43.2c29.7-40.1,90-146,90-160.4c0-4.1-24.7,30.8-55.4,78.1c-30.7,47.3-60.3,92.5-67.3,99.7
		c-10.9,11.3-32.6,0-122.7-60.7l-108.8-75.1l48.5-101.8c27.7-55.5,47.5-103.8,45.5-106.9c-3-2.1-27.7,42.2-55.4,98.7l-50.4,102.8
		l-87-51.4c-47.5-28.8-90-55.5-94-60.7c-4.9-4.1,9.9-55.5,31.7-113.1c22.8-58.6,39.6-108,37.6-110c-4.9-5.1-73.2,150.1-81.1,185.1
		c-4,15.4-7.9,27.8-9.9,27.8c-4.9,0-173.1-83.3-173.1-86.4c0-13.4,42.5-127.5,68.3-181c17.8-37,24.7-57.6,15.8-46.3
		c-23.7,30.8-70.2,127.5-84.1,177.9c-6.9,23.6-14.8,43.2-15.8,43.2c-2,0-32.6-10.3-68.3-22.6l-65.3-21.6l6.9-47.3
		c7.9-57.6,40.6-169.6,60.3-209.7c7.9-16.5,11.9-31.9,8.9-35c-13.8-15.4-79.1,177.9-87,259.1c-3,26.7-6.9,30.8-35.6,31.9
		c-67.3,3.1-77.2,41.1-32.6,122.3c44.5,80.2,60.3,84.3,22.8,7.2c-36.6-78.1-35.6-108,6.9-102.8c22.8,3.1,26.7,8.2,30.7,49.4
		c4.9,44.2,6.9,46.3,48.5,58.6c24.7,7.2,45.5,11.3,48.5,9.3c2-3.1-13.8-10.3-36.6-17.5c-37.6-11.3-40.6-15.4-40.6-48.3
		c0-39.1,6.9-40.1,83.1-7.2c35.6,15.4,37.6,18.5,32.6,51.4l-5.9,36l70.2,20.6c37.6,12.3,71.2,20.6,73.2,17.5
		c2-2.1-22.8-12.3-55.4-22.6c-67.3-20.6-73.2-26.7-64.3-56.5c5.9-20.6,10.9-18.5,86.1,22.6c43.5,24.7,82.1,53.5,87,64.8
		c4.9,12.3,31.7,29.8,70.2,45.2c102.9,40.1,323.5,187.1,392.7,262.2c33.6,36,61.3,62.7,61.3,58.6c0-4.1-10.9-18.5-24.7-31.9
		c-37.6-37-21.8-37,29.7,0c41.5,29.8,44.5,33.9,30.7,50.4c-12.9,14.4-12.9,19.5,4,42.2c10.9,14.4,19.8,20.6,19.8,13.4
		c0-6.2-4-15.4-9.9-18.5c-16.8-11.3-10.9-36,9.9-36c19.8,0,148.4,118.2,148.4,136.7c0,6.2-22.8,8.2-61.3,5.1
		c-60.3-6.2-61.3-5.1-27.7,7.2C1351.4,1753.1,1412.7,1755.2,1418.7,1738.7z M876.6,1692.5c-43.5-10.3-150.4-48.3-183-64.8
		c-18.8-10.3-63.3-40.1-98.9-67.9c-61.3-47.3-63.3-49.4-39.6-56.5l24.7-7.2l-26.7-1c-42.5-2.1-33.6,24.7,23.7,72
		c87,72,223.6,132.6,294.8,130.6C891.4,1697.6,892.4,1696.6,876.6,1692.5z M921.1,1668.8c-10.9-21.6-4.9-29.8,65.3-105.9
		c89-95.6,71.2-87.4-27.7,12.3l-66.3,65.8l14.8,30.8c8.9,16.5,17.8,27.8,20.8,24.7C930,1693.5,927,1681.2,921.1,1668.8z
		 M1116.9,1675c26.7-14.4,54.4-32.9,62.3-43.2c8.9-12.3-6.9-7.2-45.5,15.4C1040.8,1700.7,1028.9,1721.3,1116.9,1675z M870.6,1589.7
		c-6.9-10.3-28.7-32.9-47.5-50.4l-34.6-31.9l32.6-76.1c48.5-112.1,47.5-116.2-3-20.6c-24.7,46.3-45.5,90.5-44.5,97.7
		c0,9.3,94,96.6,106.8,97.7C882.5,1607.1,878.6,1598.9,870.6,1589.7z M693.6,1473.5c-29.7-9.3-55.4-22.6-57.4-28.8
		c-1-5.1,4-51.4,11.9-100.8c13.8-82.3,14.8-124.4,2-79.2s-35.6,192.3-29.7,197.4c7.9,9.3,84.1,29.8,107.8,29.8
		C739.1,1492,723.2,1483.8,693.6,1473.5z M1632.3,1464.2c25.7-17.5,1-64.8-78.1-146L1476,1238l14.8-44.2
		c18.8-56.5,43.5-203.6,43.5-261.1c0-61.7,21.8-59.6,96.9,5.1c102.9,89.4,126.6,138.8,74.2,151.1c-45.5,10.3-49.5,14.4-8.9,9.3
		c49.5-6.2,59.4-16.5,50.4-56.5c-6.9-30.8-106.8-146-189.9-219c-22.8-19.5-32.6-37-32.6-56.5c0-30.8-26.7-124.4-40.6-139.8
		c-4-5.1,1,26.7,11.9,70.9c10.9,43.2,18.8,81.2,16.8,82.3c-2,2.1-30.7-17.5-65.3-42.2C1390,694.2,1386,688,1386,651
		c0-28.8,4.9-41.1,17.8-44.2c12.9-4.1,11.9-5.1-4.9-6.2s-23.7,6.2-28.7,27.8c-3,15.4-5.9,30.8-6.9,35c-1,4.1-59.4-31.9-130.6-79.2
		c-70.2-47.3-152.3-98.7-181-115.2c-63.3-32.9-69.2-41.1-45.5-59.6c22.8-17.5,13.8-19.5-18.8-4.1c-18.8,8.2-29.7,8.2-47.5-2.1
		l-23.7-13.4l29.7-7.2c25.7-6.2,22.8-7.2-17.8-8.2c-30.7-1-67.3-11.3-106.8-32.9C740.1,299.4,614.4,250,587.7,250
		c-11.9,0-24.7,4.1-27.7,10.3c-7.9,12.3,15.8,48.3,46.5,69.9c19.8,14.4,18.8,12.3-5.9-18.5c-17.8-22.6-23.7-37-15.8-39.1
		c6.9-3.1,59.4,20.6,116.7,50.4c91,48.3,104.9,58.6,105.8,81.2c0,14.4,7.9,37,17.8,51.4c20.8,30.8,21.8,19.5,2-20.6
		c-14.8-29.8-14.8-30.8,4.9-30.8c16.8,0,49.5,16.5,78.1,38c3,2.1-9.9,16.5-27.7,31.9l-32.6,27.8l40.6,54.5
		c52.4,68.9,61.3,68.9,13.8,1c-35.6-51.4-35.6-53.5-16.8-67.9c42.5-32.9,48.5-32.9,97.9-1c27.7,17.5,51.4,32.9,53.4,35
		c2,2.1-14.8,26.7-36.6,54.5c-22.8,27.8-41.5,55.5-41.5,60.7c0,8.2,83.1,79.2,116.7,98.7c27.7,16.5,7.9-4.1-42.5-45.2
		c-29.7-23.6-54.4-49.4-54.4-55.5c0-6.2,18.8-30.8,40.6-55.5l39.6-44.2l59.4,37l58.4,37l-15.8,38c-8.9,20.6-22.8,53.5-30.7,73
		c-7.9,18.5-10.9,38-5.9,43.2c11.9,12.3,130.6,57.6,171.1,64.8c19.8,3.1,7.9-4.1-29.7-18.5c-76.2-27.8-128.6-55.5-128.6-65.8
		c1-4.1,12.9-33.9,27.7-66.8l26.7-58.6l87,58.6l87,58.6l-6.9,53.5l-5.9,52.4l67.3,6.2c78.1,8.2,97.9,2.1,26.7-8.2
		c-25.7-4.1-53.4-8.2-59.4-10.3c-12.9-4.1-18.8-77.1-6.9-77.1c14.8,0,170.1,118.2,159.3,121.3c-9.9,2.1-15.8,26.7-20.8,77.1
		c-6.9,76.1-39.6,233.4-53.4,261.1c-6.9,11.3-24.7,1-83.1-48.3l-75.2-61.7l23.7-90.5c12.9-49.4,23.7-100.8,22.8-115.2
		c0-14.4-12.9,19.5-26.7,74c-14.8,54.5-29.7,102.8-34.6,106.9c-7.9,8.2-234.4-149.1-234.4-162.4c0-5.1,7.9-25.7,18.8-47.3
		c9.9-20.6,20.8-49.4,24.7-63.7c4-14.4-7.9,2.1-24.7,36c-16.8,33.9-32.6,63.7-34.6,65.8s-45.5-22.6-96.9-55.5l-94-58.6l31.7-46.3
		c58.4-85.3,59.4-90.5,3-28.8L833,779.5l-67.3-38c-36.6-20.6-68.3-42.2-70.2-48.3s28.7-46.3,68.3-88.4c95-101.8,75.2-99.7-22.8,2.1
		l-77.2,79.2l-76.2-39.1l-77.2-39.1l57.4-54.5c31.7-30.8,92-74,133.5-96.6c41.5-22.6,70.2-42.2,62.3-42.2
		c-28.7,0-155.3,79.2-210.7,131.6l-57.4,55.5L428.5,580c-148.4-50.4-196.9-7.2-123.7,109c34.6,56.5,40.6,50.4,7.9-8.2
		c-27.7-51.4-31.7-89.4-8.9-98.7c15.8-6.2,66.3,7.2,126.6,32.9c30.7,13.4,33.6,18.5,26.7,39.1c-9.9,26.7-11.9,24.7,73.2,73
		c34.6,20.6,42.5,22.6,24.7,7.2c-13.8-11.3-39.6-28.8-56.4-39.1c-32.6-18.5-41.5-37-22.8-49.4c4.9-3.1,45.5,13.4,89,37l80.1,43.2
		l-16.8,25.7c-15.8,24.7-14.8,26.7,4.9,42.2c27.7,22.6,119.7,75.1,119.7,69.9c0-3.1-26.7-22.6-59.4-44.2
		c-32.6-22.6-59.4-43.2-59.4-46.3s5.9-12.3,12.9-21.6c10.9-15.4,19.8-12.3,88,29.8l77.2,46.3l-14.8,28.8
		c-14.8,29.8-14.8,29.8,26.7,59.6c65.3,46.3,140.5,89.4,133.5,77.1c-4-6.2-40.6-32.9-81.1-59.6c-40.6-25.7-74.2-51.4-74.2-55.5
		s5.9-15.4,12.9-24.7c10.9-15.4,21.8-10.3,108.8,46.3c75.2,48.3,96,65.8,90,79.2c-17.8,46.3-15.8,48.3,95,118.2
		c60.3,39.1,111.8,67.9,113.8,65.8c2-2.1-44.5-35-103.9-74c-95-61.7-106.8-73-97.9-89.4c4.9-11.3,12.9-19.5,15.8-19.5
		c4,0,59.4,36,123.7,80.2c70.2,47.3,114.7,84.3,111.8,92.5c-3,6.2-6.9,18.5-9.9,25.7c-3,7.2,17.8,26.7,51.4,47.3
		c31.7,19.5,67.3,42.2,80.1,50.4c11.9,8.2,21.8,12.3,21.8,10.3c0-3.1-30.7-26.7-69.2-53.5c-37.6-25.7-69.2-51.4-69.2-56.5
		c0-26.7,24.7-17.5,92,31.9c57.4,42.2,73.2,59.6,72.2,78.1c-1,17.5,10.9,30.8,51.4,54.5c65.3,40.1,67.3,30.8,1-15.4
		c-27.7-18.5-45.5-37-40.6-41.1c10.9-7.2,130.6,94.6,153.3,131.6c15.8,24.7,15.8,27.8,2,32.9c-8.9,4.1-34.6,4.1-57.4,1l-41.5-5.1
		l39.6,13.4C1596.7,1474.5,1614.5,1475.5,1632.3,1464.2z M479.9,1381c-9.9-48.3-12.9-100.8-9.9-143.9c4-45.2,3-60.7-3-46.3
		c-14.8,32.9-11.9,161.4,4.9,220C493.8,1487.9,498.7,1470.4,479.9,1381z M408.7,1301.8c-16.8-44.2-34.6-93.6-40.6-111l-10.9-30.8
		l4,37c4.9,41.1,64.3,198.4,72.2,190.2C436.4,1384,425.5,1346,408.7,1301.8z M1405.8,569.8c16.8-5.1,1-9.3-54.4-13.4
		c-100.9-6.2-162.2-38-232.5-118.2c-40.6-47.3-48.5-52.4-35.6-26.7C1137.7,523.5,1298,601.6,1405.8,569.8z"/>
</g>
</svg>
